<svg xmlns="http://www.w3.org/2000/svg" viewBox="0 0 32 32" id="eye"><path d="M31 15.71C29.11 9.51 22.82 5 16 5S2.89 9.51 1 15.71a1.14 1.14 0 0 0 0 .58C2.89 22.49 9.18 27 16 27s13.11-4.51 15-10.71a1.14 1.14 0 0 0 0-.58ZM16 25a13.7 13.7 0 0 1-12.95-9A13.7 13.7 0 0 1 16 7a13.7 13.7 0 0 1 13 9 13.7 13.7 0 0 1-13 9Z" fill="#595bd4" class="color000000 svgShape"></path><path d="M22.93 12.61a3.49 3.49 0 0 0-4.76-3.26A7 7 0 1 0 23 16a6.7 6.7 0 0 0-.33-2.08 3.4 3.4 0 0 0 .26-1.31Zm-2 0a1.5 1.5 0 0 1-.2.73 1.5 1.5 0 0 1-.52.54h-.1l-.2.08-.15.05a1.2 1.2 0 0 1-.2 0h-.13a1.36 1.36 0 0 1-.36 0 1.66 1.66 0 0 1-.37-.14 1.55 1.55 0 0 1-.54-.54A1.13 1.13 0 0 1 18 13a1.39 1.39 0 0 1 0-.3 1.57 1.57 0 0 1 .05-.37 1.53 1.53 0 0 1 .71-.89h.05a1.39 1.39 0 0 1 .67-.17 1.5 1.5 0 0 1 1.45 1.34ZM16 21a5 5 0 0 1 0-10h.33v.06a4 4 0 0 0-.23.61v.14a1.16 1.16 0 0 0-.1.19 4 4 0 1 0 4 4.05 1.08 1.08 0 0 0 .19 0 1.82 1.82 0 0 0 .25-.07 3.41 3.41 0 0 0 .48-.18H21a2.26 2.26 0 0 1 0 .2 5 5 0 0 1-5 5Z" fill="#595bd4" class="color000000 svgShape"></path></svg>